<svg width="20" height="20" viewBox="0 0 20 20" fill="none" xmlns="http://www.w3.org/2000/svg">
<path d="M2.5 18.3333C2.5 17.8731 2.8731 17.5 3.33333 17.5H16.6667C17.1269 17.5 17.5 17.8731 17.5 18.3333C17.5 18.7936 17.1269 19.1667 16.6667 19.1667H3.33333C2.8731 19.1667 2.5 18.7936 2.5 18.3333Z" fill="#FAFAFA"/>
<path fill-rule="evenodd" clip-rule="evenodd" d="M13.9226 2.60105C13.5972 2.27561 13.0695 2.27561 12.7441 2.60105L12.0119 3.33326L15 6.32141L15.7322 5.58921C16.0577 5.26377 16.0577 4.73613 15.7322 4.4107L13.9226 2.60105ZM5.76187 9.58326L10.8334 4.51177L13.8215 7.49992L8.75003 12.5714L5.76187 9.58326ZM4.58336 10.7618L4.16667 11.1785V14.1666H7.15482L7.57152 13.7499L4.58336 10.7618ZM11.5656 1.42254C12.5419 0.44623 14.1248 0.44623 15.1011 1.42254L16.9107 3.23219C17.8871 4.2085 17.8871 5.79141 16.9107 6.76772L8.33333 15.3451C8.02077 15.6577 7.59685 15.8333 7.15482 15.8333H4.16667C3.24619 15.8333 2.5 15.0871 2.5 14.1666V11.1785C2.5 10.7364 2.67559 10.3125 2.98816 9.99995L11.5656 1.42254Z" fill="#FAFAFA"/>
</svg>
