<svg width="20" height="20" viewBox="0 0 20 20" fill="none" xmlns="http://www.w3.org/2000/svg">
<path d="M8.33317 8.33335C8.79341 8.33335 9.1665 8.70645 9.1665 9.16669V14.1667C9.1665 14.6269 8.79341 15 8.33317 15C7.87293 15 7.49984 14.6269 7.49984 14.1667V9.16669C7.49984 8.70645 7.87293 8.33335 8.33317 8.33335Z" fill="white"/>
<path d="M12.4998 9.16669C12.4998 8.70645 12.1267 8.33335 11.6665 8.33335C11.2063 8.33335 10.8332 8.70645 10.8332 9.16669V14.1667C10.8332 14.6269 11.2063 15 11.6665 15C12.1267 15 12.4998 14.6269 12.4998 14.1667V9.16669Z" fill="white"/>
<path fill-rule="evenodd" clip-rule="evenodd" d="M14.0832 5.00002C13.6971 3.09815 12.0156 1.66669 9.99984 1.66669C7.98404 1.66669 6.30258 3.09815 5.91652 5.00002H2.49984C2.0396 5.00002 1.6665 5.37312 1.6665 5.83335C1.6665 6.29359 2.0396 6.66669 2.49984 6.66669H3.39057L3.94749 14.4635C4.10324 16.644 5.91757 18.3334 8.10357 18.3334H11.8961C14.0821 18.3334 15.8964 16.644 16.0522 14.4636L16.6091 6.66669H17.4998C17.9601 6.66669 18.3332 6.29359 18.3332 5.83335C18.3332 5.37312 17.9601 5.00002 17.4998 5.00002H14.0832ZM9.99984 3.33335C8.91132 3.33335 7.98529 4.02903 7.64209 5.00002H12.3576C12.0144 4.02903 11.0884 3.33335 9.99984 3.33335ZM14.9382 6.66669H5.06149L5.60992 14.3448C5.70337 15.6531 6.79197 16.6667 8.10357 16.6667H11.8961C13.2077 16.6667 14.2963 15.6531 14.3898 14.3448L14.9382 6.66669Z" fill="white"/>
</svg>
