<svg width="32" height="32" viewBox="0 0 32 32" fill="none" xmlns="http://www.w3.org/2000/svg">
<rect width="32" height="32" rx="8" fill="#FF7171"/>
<g clip-path="url(#clip0_2704_8272)">
<path d="M10.078 21.922C11.6486 23.4926 13.7788 24.375 16 24.375C18.2212 24.375 20.3514 23.4926 21.922 21.922C23.4926 20.3514 24.375 18.2212 24.375 16C24.375 13.7788 23.4926 11.6486 21.922 10.078C20.3514 8.50736 18.2212 7.625 16 7.625C13.7788 7.625 11.6486 8.50736 10.078 10.078C8.50736 11.6486 7.625 13.7788 7.625 16C7.625 18.2212 8.50736 20.3514 10.078 21.922ZM22.0104 22.0104C20.4163 23.6045 18.2543 24.5 16 24.5C13.7457 24.5 11.5837 23.6045 9.98959 22.0104C8.39553 20.4163 7.5 18.2543 7.5 16C7.5 13.7457 8.39553 11.5837 9.98959 9.98959C11.5837 8.39553 13.7457 7.5 16 7.5C18.2543 7.5 20.4163 8.39553 22.0104 9.98959C23.6045 11.5837 24.5 13.7457 24.5 16C24.5 18.2543 23.6045 20.4163 22.0104 22.0104Z" fill="#DD3333" stroke="#DD3333"/>
<path d="M11.5 18.8125C11.5 18.9617 11.5593 19.1048 11.6648 19.2102C11.7702 19.3157 11.9133 19.375 12.0625 19.375H19.9375C20.0867 19.375 20.2298 19.3157 20.3352 19.2102C20.4407 19.1048 20.5 18.9617 20.5 18.8125C20.5 18.6633 20.4407 18.5202 20.3352 18.4148C20.2298 18.3093 20.0867 18.25 19.9375 18.25H12.0625C11.9133 18.25 11.7702 18.3093 11.6648 18.4148C11.5593 18.5202 11.5 18.6633 11.5 18.8125ZM14.875 14.3125C14.875 13.381 14.371 12.625 13.75 12.625C13.129 12.625 12.625 13.381 12.625 14.3125C12.625 15.244 13.129 16 13.75 16C14.371 16 14.875 15.244 14.875 14.3125ZM19.375 14.3125C19.375 13.381 18.871 12.625 18.25 12.625C17.629 12.625 17.125 13.381 17.125 14.3125C17.125 15.244 17.629 16 18.25 16C18.871 16 19.375 15.244 19.375 14.3125Z" fill="#DD3333"/>
</g>
<defs>
<clipPath id="clip0_2704_8272">
<rect width="18" height="18" fill="white" transform="translate(7 7)"/>
</clipPath>
</defs>
</svg>