<svg width="18" height="18" viewBox="0 0 18 18" fill="none" xmlns="http://www.w3.org/2000/svg">
<g clip-path="url(#clip0_2704_8245)">
<path d="M3.07798 14.922C4.6486 16.4926 6.77881 17.375 9 17.375C11.2212 17.375 13.3514 16.4926 14.922 14.922C16.4926 13.3514 17.375 11.2212 17.375 9C17.375 6.77881 16.4926 4.6486 14.922 3.07798C13.3514 1.50736 11.2212 0.625 9 0.625C6.77881 0.625 4.6486 1.50736 3.07798 3.07798C1.50736 4.6486 0.625 6.77881 0.625 9C0.625 11.2212 1.50736 13.3514 3.07798 14.922ZM15.0104 15.0104C13.4163 16.6045 11.2543 17.5 9 17.5C6.74566 17.5 4.58365 16.6045 2.98959 15.0104C1.39553 13.4163 0.5 11.2543 0.5 9C0.5 6.74566 1.39553 4.58365 2.98959 2.98959C4.58365 1.39553 6.74566 0.5 9 0.5C11.2543 0.5 13.4163 1.39553 15.0104 2.98959C16.6045 4.58365 17.5 6.74566 17.5 9C17.5 11.2543 16.6045 13.4163 15.0104 15.0104Z" fill="#16A34A" stroke="#16A34A"/>
<path d="M4.82078 10.7629C4.94998 10.6883 5.10351 10.6681 5.24761 10.7067C5.39171 10.7453 5.51457 10.8396 5.58916 10.9688C5.93466 11.5676 6.43184 12.0649 7.03065 12.4105C7.62947 12.7562 8.30877 12.9379 9.00016 12.9375C9.69156 12.9379 10.3709 12.7562 10.9697 12.4105C11.5685 12.0649 12.0657 11.5676 12.4112 10.9688C12.4478 10.9043 12.4969 10.8477 12.5555 10.8022C12.6141 10.7568 12.6812 10.7234 12.7528 10.7039C12.8244 10.6845 12.8991 10.6794 12.9727 10.689C13.0462 10.6985 13.1172 10.7225 13.1814 10.7596C13.2457 10.7967 13.3019 10.8462 13.347 10.9051C13.392 10.964 13.425 11.0313 13.444 11.103C13.4629 11.1747 13.4675 11.2495 13.4575 11.323C13.4474 11.3965 13.4229 11.4673 13.3854 11.5312C12.9412 12.3011 12.302 12.9404 11.5321 13.3848C10.7623 13.8292 9.88903 14.0629 9.00016 14.0625C8.11129 14.0629 7.238 13.8292 6.46817 13.3848C5.69834 12.9404 5.05915 12.3011 4.61491 11.5312C4.54032 11.4021 4.52011 11.2485 4.55872 11.1044C4.59733 10.9603 4.69159 10.8375 4.82078 10.7629ZM7.87516 7.3125C7.87516 8.244 7.37116 9 6.75016 9C6.12916 9 5.62516 8.244 5.62516 7.3125C5.62516 6.381 6.12916 5.625 6.75016 5.625C7.37116 5.625 7.87516 6.381 7.87516 7.3125ZM12.3752 7.3125C12.3752 8.244 11.8712 9 11.2502 9C10.6292 9 10.1252 8.244 10.1252 7.3125C10.1252 6.381 10.6292 5.625 11.2502 5.625C11.8712 5.625 12.3752 6.381 12.3752 7.3125Z" fill="#16A34A"/>
</g>
<defs>
<clipPath id="clip0_2704_8245">
<rect width="18" height="18" fill="white"/>
</clipPath>
</defs>
</svg>
