<svg width="32" height="32" viewBox="0 0 32 32" fill="none" xmlns="http://www.w3.org/2000/svg">
<rect width="32" height="32" rx="8" fill="#BBF7D0"/>
<g clip-path="url(#clip0_2704_8274)">
<path d="M10.078 21.922C11.6486 23.4926 13.7788 24.375 16 24.375C18.2212 24.375 20.3514 23.4926 21.922 21.922C23.4926 20.3514 24.375 18.2212 24.375 16C24.375 13.7788 23.4926 11.6486 21.922 10.078C20.3514 8.50736 18.2212 7.625 16 7.625C13.7788 7.625 11.6486 8.50736 10.078 10.078C8.50736 11.6486 7.625 13.7788 7.625 16C7.625 18.2212 8.50736 20.3514 10.078 21.922ZM22.0104 22.0104C20.4163 23.6045 18.2543 24.5 16 24.5C13.7457 24.5 11.5837 23.6045 9.98959 22.0104C8.39553 20.4163 7.5 18.2543 7.5 16C7.5 13.7457 8.39553 11.5837 9.98959 9.98959C11.5837 8.39553 13.7457 7.5 16 7.5C18.2543 7.5 20.4163 8.39553 22.0104 9.98959C23.6045 11.5837 24.5 13.7457 24.5 16C24.5 18.2543 23.6045 20.4163 22.0104 22.0104Z" fill="#16A34A" stroke="#16A34A"/>
<path d="M11.8208 17.7629C11.95 17.6883 12.1035 17.6681 12.2476 17.7067C12.3917 17.7453 12.5146 17.8396 12.5892 17.9688C12.9347 18.5676 13.4318 19.0649 14.0307 19.4105C14.6295 19.7562 15.3088 19.9379 16.0002 19.9375C16.6916 19.9379 17.3709 19.7562 17.9697 19.4105C18.5685 19.0649 19.0657 18.5676 19.4112 17.9688C19.4478 17.9043 19.4969 17.8477 19.5555 17.8022C19.6141 17.7568 19.6812 17.7234 19.7528 17.7039C19.8244 17.6845 19.8991 17.6794 19.9727 17.689C20.0462 17.6985 20.1172 17.7225 20.1814 17.7596C20.2457 17.7967 20.3019 17.8462 20.347 17.9051C20.392 17.964 20.425 18.0313 20.444 18.103C20.4629 18.1747 20.4675 18.2495 20.4575 18.323C20.4474 18.3965 20.4229 18.4673 20.3854 18.5312C19.9412 19.3011 19.302 19.9404 18.5321 20.3848C17.7623 20.8292 16.889 21.0629 16.0002 21.0625C15.1113 21.0629 14.238 20.8292 13.4682 20.3848C12.6983 19.9404 12.0591 19.3011 11.6149 18.5312C11.5403 18.4021 11.5201 18.2485 11.5587 18.1044C11.5973 17.9603 11.6916 17.8375 11.8208 17.7629ZM14.8752 14.3125C14.8752 15.244 14.3712 16 13.7502 16C13.1292 16 12.6252 15.244 12.6252 14.3125C12.6252 13.381 13.1292 12.625 13.7502 12.625C14.3712 12.625 14.8752 13.381 14.8752 14.3125ZM19.3752 14.3125C19.3752 15.244 18.8712 16 18.2502 16C17.6292 16 17.1252 15.244 17.1252 14.3125C17.1252 13.381 17.6292 12.625 18.2502 12.625C18.8712 12.625 19.3752 13.381 19.3752 14.3125Z" fill="#16A34A"/>
</g>
<defs>
<clipPath id="clip0_2704_8274">
<rect width="18" height="18" fill="white" transform="translate(7 7)"/>
</clipPath>
</defs>
</svg>